<svg width="84" height="36" viewBox="0 0 84 36" fill="none" xmlns="http://www.w3.org/2000/svg">
<g clip-path="url(#clip0_2183_9866)">
<path d="M34.0908 13.8025C33.6426 13.2454 33.0662 12.804 32.4103 12.5158C31.7759 12.2479 31.0934 12.1114 30.4043 12.1143C29.7304 12.0952 29.0608 12.2274 28.4452 12.5011C27.945 12.7309 27.4922 13.0515 27.1099 13.4465V11.1235H22.6294V25.016C22.5517 25.0602 22.4864 25.1032 22.4025 25.1486C22.1699 25.272 21.9134 25.3444 21.6504 25.361C21.066 25.361 20.6209 25.2112 20.3102 24.9043C19.9952 24.5829 19.7615 24.1915 19.6284 23.7624C19.4801 23.2985 19.3902 22.818 19.3608 22.3321C19.3288 21.8311 19.3115 21.3867 19.3115 20.9974V4.25146H14.4438V6.23191C14.4438 6.23191 13.3108 5.3614 12.4181 5.00411C11.5891 4.67023 10.7046 4.49367 9.81043 4.48352C8.1854 4.48352 6.79217 4.91816 5.61841 5.79113C4.43619 6.6799 3.46365 7.81559 2.76907 9.11847C2.01559 10.5191 1.47304 12.0225 1.15884 13.5803C0.829058 15.1376 0.65927 16.7243 0.6521 18.3159C0.6521 20.2886 0.904032 21.9707 1.4079 23.3622C1.91176 24.7537 2.5533 25.8857 3.33253 26.7583C4.05791 27.5916 4.96622 28.2474 5.98706 28.6749C6.92014 29.0666 7.92122 29.2727 8.9338 29.2814C10.4955 29.2814 11.8279 28.8361 12.931 27.9456C14.0011 27.1014 14.8252 25.9879 15.318 24.7201C15.6102 26.3703 16.1601 27.312 16.9738 28.0057C17.7228 28.6782 18.6952 29.0508 19.7036 29.0518C20.0356 29.0524 20.3666 29.0149 20.6899 28.9401C21.3757 28.8414 22.0349 28.6082 22.6294 28.2537V35.4978L27.1099 34.3792V26.8528C27.3876 27.1822 27.7384 27.4428 28.1345 27.6141C28.5919 27.8301 29.2121 27.9394 30.0012 27.9394C31.0993 27.9394 32.0162 27.6963 32.7519 27.2101C33.4853 26.7277 34.0886 26.0733 34.5088 25.3046C34.9612 24.4732 35.272 23.5729 35.4286 22.6402C35.6028 21.6589 35.6907 20.6643 35.6912 19.6677C35.6912 18.2828 35.5465 17.1053 35.2572 16.1353C34.9679 15.1654 34.5791 14.3878 34.0908 13.8025ZM14.4611 20.2325C14.4645 20.9104 14.3502 21.5837 14.1233 22.2228C13.9093 22.8233 13.5931 23.3828 13.1887 23.8766C12.7965 24.3512 12.3143 24.7442 11.7696 25.0332C11.2388 25.3166 10.6457 25.4642 10.0435 25.4629C8.8927 25.4629 7.91662 24.8879 7.11521 23.7379C6.31379 22.5878 5.91349 20.7183 5.91432 18.1293C5.9207 16.8854 6.02583 15.6439 6.22872 14.4164C6.4135 13.2065 6.74469 12.0233 7.21507 10.8926C7.60952 9.9157 8.19644 9.02731 8.9412 8.27988C9.28073 7.94336 9.68519 7.67881 10.1302 7.50218C10.5752 7.32556 11.0515 7.24053 11.5304 7.25221C12.3614 7.25221 13.0021 7.45889 13.4526 7.87225C13.8875 8.2723 14.2314 8.76045 14.4611 9.30387V20.2325ZM31.2292 21.3572C31.1485 22.0194 30.9909 22.67 30.7594 23.2959C30.5741 23.8254 30.2711 24.3064 29.8729 24.7029C29.6937 24.8805 29.4803 25.0201 29.2456 25.1136C29.0108 25.207 28.7596 25.2524 28.5068 25.2469C28.1892 25.2622 27.8744 25.1808 27.6043 25.0136C27.4077 24.8905 27.2396 24.7273 27.1111 24.5347V15.891C27.2379 15.4318 27.5099 15.0253 27.8867 14.732C28.1982 14.4886 28.5807 14.3525 28.9766 14.344C29.1829 14.3555 29.3864 14.3968 29.5807 14.4668C29.8957 14.5923 30.17 14.8017 30.3735 15.0721C30.6448 15.3913 30.8782 15.8824 31.0738 16.5454C31.2699 17.2072 31.371 18.1047 31.371 19.2392C31.3694 19.9475 31.3221 20.655 31.2292 21.3572Z" fill="#0321AA"/>
<path d="M48.7445 13.8026C48.2979 13.2453 47.7226 12.8038 47.0677 12.5158C46.4331 12.2484 45.7507 12.1118 45.0616 12.1143C44.4487 12.0925 43.838 12.1999 43.2696 12.4295C42.7013 12.659 42.188 13.0056 41.7635 13.4465V11.1235H37.283V35.5015L41.7635 34.383V26.8565C42.0424 27.1856 42.3939 27.4462 42.7906 27.6178C43.2467 27.8339 43.8686 27.9423 44.656 27.9432C45.7542 27.9432 46.6711 27.7 47.4067 27.2138C48.1414 26.7325 48.7453 26.0779 49.1649 25.3083C49.6184 24.4774 49.9293 23.5769 50.0847 22.644C50.2593 21.6627 50.3476 20.668 50.3485 19.6715C50.3485 18.2865 50.2039 17.109 49.9145 16.1391C49.6252 15.1691 49.2352 14.3903 48.7445 13.8026ZM45.8865 21.3572C45.8049 22.019 45.6481 22.6694 45.4192 23.2959C45.2321 23.8252 44.9284 24.3059 44.5303 24.703C44.3509 24.8806 44.1373 25.0204 43.9023 25.1139C43.6674 25.2073 43.4159 25.2526 43.1629 25.2469C42.8453 25.2621 42.5305 25.1807 42.2604 25.0136C42.0645 24.8898 41.8965 24.7267 41.7672 24.5348V15.8911C41.8958 15.432 42.1684 15.0259 42.5452 14.732C42.8563 14.4887 43.2384 14.3525 43.6339 14.344C43.841 14.3558 44.0453 14.3971 44.2405 14.4668C44.5551 14.5925 44.8289 14.8019 45.0321 15.0721C45.3033 15.3913 45.5351 15.8825 45.7324 16.5455C45.9296 17.2085 46.0271 18.1048 46.0271 19.2393C46.0253 19.9475 45.9784 20.6549 45.8865 21.3572Z" fill="#0321AA"/>
<path d="M81.8269 13.8934C81.6886 13.5721 81.4996 13.2749 81.2672 13.013C81.0301 12.7453 80.7444 12.5245 80.425 12.3623C80.0924 12.196 79.7245 12.1118 79.3524 12.1167C78.6875 12.119 78.0424 12.342 77.519 12.7503C76.9587 13.1732 76.4472 13.6566 75.9938 14.1917V12.2641H71.5158V22.4929C71.2864 22.8219 71.0571 23.1338 70.8155 23.4272C70.517 23.8001 70.1723 24.1339 69.7896 24.4205C69.4012 24.7053 68.9718 24.93 68.516 25.0872C67.9833 25.2601 67.4253 25.3431 66.8651 25.3328C65.7468 25.3328 64.9614 25.0369 64.5225 24.4488C64.0836 23.8606 63.8456 22.8759 63.8234 21.491C64.5928 21.4496 65.3523 21.2983 66.0785 21.0416C66.7958 20.7961 67.4601 20.4178 68.0364 19.9268C68.6106 19.4385 69.0755 18.8358 69.4013 18.1575C69.759 17.3889 69.935 16.5488 69.9154 15.7019C69.9055 15.4223 69.8787 15.1435 69.8353 14.867C69.7678 14.4357 69.6085 14.0238 69.368 13.6588C69.0646 13.2053 68.6539 12.833 68.172 12.5747C67.632 12.2653 66.8647 12.1106 65.8701 12.1106C64.5632 12.1106 63.4848 12.3991 62.6348 12.9762C61.8041 13.5357 61.1132 14.2775 60.6153 15.1445C60.1116 16.0248 59.7586 16.9825 59.571 17.9782C59.3828 18.9222 59.2842 19.8816 59.2763 20.8439C59.2584 21.8673 59.3888 22.8879 59.6635 23.8741C59.6075 23.9729 59.5453 24.068 59.4773 24.159C59.0729 24.6759 58.5711 24.9313 57.9694 24.9313C57.3677 24.9313 56.9485 24.7925 56.7105 24.5151C56.4726 24.2376 56.353 23.663 56.353 22.7961V12.2641H51.8725V23.135C51.8725 24.5814 52.1934 25.7433 52.8354 26.6207C53.4773 27.4982 54.5977 27.939 56.1964 27.9431C56.679 27.934 57.1592 27.8714 57.6279 27.7565C58.2093 27.611 58.7517 27.3407 59.2171 26.9645C59.7043 26.5692 60.1153 26.0891 60.4304 25.5476C60.5991 25.81 60.7914 26.0566 61.0049 26.2843C61.5461 26.8473 62.2119 27.2766 62.9493 27.5379C64.6495 28.1078 66.4952 28.0757 68.1745 27.447C68.9342 27.1338 69.6344 26.6932 70.2446 26.1443C70.7281 25.7016 71.1558 25.2019 71.5182 24.6563V29.2814L75.9963 26.7374V15.9855C76.2913 15.6687 76.6095 15.3741 76.9481 15.104C77.2015 14.8816 77.5254 14.7552 77.863 14.7467C78.1527 14.7467 78.3562 14.851 78.4708 15.0561C78.5904 15.2726 78.6986 15.4951 78.7951 15.7228C78.9034 15.9667 79.0508 16.1914 79.2316 16.3882C79.4165 16.5933 79.7494 16.6977 80.2278 16.6977C80.8689 16.6977 81.33 16.5061 81.6111 16.123C81.8856 15.763 82.033 15.3227 82.0303 14.8707C82.028 14.5347 81.9589 14.2026 81.8269 13.8934ZM64.0823 17.6394C64.195 16.9621 64.3717 16.297 64.61 15.6528C64.7872 15.1612 65.0451 14.7023 65.3732 14.2948C65.6605 13.956 65.9897 13.7853 66.3374 13.7853C66.6259 13.7853 66.8959 13.9363 67.1425 14.2335C67.3891 14.5306 67.5186 15.0401 67.5186 15.7596C67.5235 16.3067 67.4283 16.8501 67.2374 17.3631C67.0595 17.841 66.7973 18.2834 66.4632 18.6695C66.131 19.0512 65.7283 19.3659 65.2771 19.5965C64.8241 19.8328 64.3272 19.974 63.8172 20.0115C63.8552 19.216 63.9438 18.4237 64.0823 17.6394Z" fill="#0321AA"/>
<path d="M54.0388 10.4113C54.4079 10.4169 54.7743 10.348 55.1161 10.209C55.4579 10.07 55.7679 9.86356 56.0275 9.60222C56.2959 9.35066 56.5085 9.04587 56.6514 8.70752C56.7943 8.36916 56.8644 8.00474 56.8573 7.63774C56.8524 6.89495 56.5539 6.18397 56.0263 5.65884C55.4988 5.13371 54.7847 4.83672 54.0388 4.83221C53.6705 4.82606 53.3049 4.89623 52.9653 5.03827C52.6257 5.18031 52.3195 5.39111 52.066 5.65729C51.8035 5.91607 51.5964 6.22525 51.4573 6.5661C51.3183 6.90695 51.2502 7.27236 51.2572 7.64019C51.2553 8.00455 51.3259 8.36567 51.4649 8.70268C51.604 9.0397 51.8088 9.34591 52.0675 9.6036C52.3261 9.8613 52.6335 10.0654 52.9719 10.204C53.3103 10.3427 53.6729 10.4131 54.0388 10.4113Z" fill="#0321AA"/>
</g>
<defs>
<clipPath id="clip0_2183_9866">
<rect width="83.33" height="31.2487" fill="white" transform="translate(0 4.25146)"/>
</clipPath>
</defs>
</svg>
